<svg width="66" height="66" viewBox="0 0 66 66" fill="none" xmlns="http://www.w3.org/2000/svg">
<g clip-path="url(#clip0)">
<path d="M27.9871 30.8331C28.3563 30.2564 28.1151 28.3719 28.1151 28.3719C14.226 23.5879 3.83528 17.5901 4.42373 15.1525C4.71355 13.9477 5.11517 13.4195 5.39322 13.3268C6.01551 13.1238 7.42046 13.8609 9.1417 14.9951L12.0031 11.6351C10.6496 10.8039 7.31306 8.05879 4.03535 9.12682C2.69661 9.55932 0.935648 10.7774 0.132403 14.1198C-1.75066 21.9461 16.9182 29.0104 26.9323 32.4851C26.9308 32.4866 27.6178 31.4112 27.9871 30.8331Z" fill="#24B794"/>
<path d="M60.4817 15.6629C60.0227 15.0171 59.5431 14.386 59.04 13.7784C53.5203 7.15692 45.2171 2.93335 35.9416 2.93335C35.9254 2.93335 35.9121 2.93482 35.8974 2.93482C35.8871 2.93482 35.8783 2.93335 35.8695 2.93335C35.8356 2.93335 35.8018 2.93776 35.7665 2.93776C26.563 2.99072 18.3305 7.20105 12.846 13.7799C12.34 14.3874 11.8604 15.0171 11.4043 15.6629C11.0571 16.1542 10.7335 16.6647 10.4142 17.1767C11.0424 17.5739 11.753 17.9961 12.5459 18.4404C12.8196 18.0034 13.0932 17.565 13.3904 17.1443C15.2602 18.3933 17.4198 19.4834 19.8104 20.3837C19.678 20.8618 19.578 21.3649 19.4603 21.8548C20.1915 22.174 20.9609 22.4947 21.745 22.814C21.8686 22.2623 21.9804 21.7047 22.1216 21.1707C25.9186 22.3344 30.185 23.0332 34.7102 23.142V26.277L34.8632 26.3741L35.078 27.6628L35.4105 29.637L37.1758 30.0945V23.142C38.0526 23.1214 38.9074 23.0596 39.7592 22.9964L40.405 21.1663L40.6536 20.4602C39.515 20.569 38.3586 20.6485 37.1758 20.6764V5.50927C42.1836 6.28307 46.4956 11.4687 48.9465 18.892C47.7607 19.2436 46.5073 19.529 45.226 19.782C46.063 20.2027 46.8957 20.8544 47.4871 21.7768C48.2094 21.5974 48.9362 21.4208 49.6335 21.2105C50.5544 24.7176 51.0885 28.6175 51.112 32.7455H47.2885C47.2488 32.9955 47.2091 33.2309 47.1664 33.4928C48.664 34.1077 50.4441 34.8403 50.8295 34.9992C51.9726 35.4714 52.8259 36.182 53.3967 37.047C53.4452 36.4379 53.4982 35.8318 53.5262 35.211H59.446C59.3416 35.976 59.243 36.7454 59.1077 37.481C59.4828 37.2882 59.8109 36.9116 59.9815 36.2026C60.0742 35.8201 60.0845 35.5008 60.0654 35.211H63.4476C63.0445 40.2658 61.2659 44.9307 58.4986 48.8527C56.5964 47.5831 54.3927 46.4709 51.9476 45.5633C52.0815 45.0748 52.1918 44.5673 52.3095 44.0657C51.5269 44.6791 50.5456 45.0219 49.4364 45.0219C48.9509 45.0219 48.5419 44.9586 48.2668 44.9204L48.183 44.9042C47.8887 44.8836 47.4753 44.8498 44.9744 43.9936C45.2686 43.5964 45.6187 43.0771 46.0027 42.471V41.2382C47.1649 41.6369 48.155 41.959 48.3874 41.9752C49.0303 42.0193 50.681 42.5843 51.1547 40.6203C51.6298 38.6549 50.3956 38.0062 49.71 37.7208C49.3202 37.5633 47.5106 36.819 46.0027 36.1982V33.7017L45.1436 35.8451C44.3962 35.5376 43.8593 35.317 43.8593 35.317C43.8593 35.317 45.7217 25.0456 45.2127 23.7452C44.7037 22.4447 43.1781 22.149 43.1781 22.149L39.1207 33.6414L34.7102 32.5012L32.8227 32.0114L32.1769 28.1526L30.1188 26.836C30.1173 26.836 30.2394 30.0165 29.9363 31.7319C29.879 32.0555 29.8054 32.3277 29.7142 32.5145C29.6804 32.5866 29.6186 32.6734 29.5686 32.7528C29.3538 33.1088 29.0169 33.534 28.6432 33.965C28.6417 33.9679 28.6388 33.9679 28.6373 33.9709C28.4608 34.1754 28.2754 34.3769 28.0915 34.574C28.0709 34.5976 28.0518 34.6182 28.0312 34.6402C27.8561 34.8241 27.684 35.0036 27.5178 35.1713C26.9573 35.7436 26.5086 36.1658 26.5086 36.1658L28.3078 37.4957L31.303 35.211H31.3045L31.9827 34.6917L33.0581 35.211L35.7841 36.5218L37.1714 37.1912L37.4818 37.3412L32.9595 48.6158C32.9595 48.6158 34.4425 49.9472 35.5576 49.088C36.6742 48.2289 41.4304 39.6053 41.4304 39.6053C41.4304 39.6053 42.2616 39.9098 43.3517 40.304L43.0987 40.9351C43.2458 40.9307 43.3855 40.9131 43.5341 40.9101V43.4963C43.4253 43.4581 43.3238 43.4213 43.209 43.3816C43.0501 43.3581 42.8824 43.3448 42.725 43.3213C42.2395 44.1789 41.7952 44.9469 41.3951 45.628C44.0667 45.9266 46.6147 46.418 48.9509 47.1079C46.4985 54.5341 42.1807 59.7154 37.1729 60.4906V51.5374C36.4476 52.042 35.6032 52.3201 34.7073 52.3201V60.5083C29.648 59.8139 25.2772 54.6209 22.7998 47.1476C25.3228 46.3871 28.0945 45.8545 31.0147 45.5647L32.0386 43.0094C28.5034 43.2816 25.1492 43.898 22.1069 44.8321C21.3287 41.8752 20.8314 38.6314 20.6784 35.2125H23.2235L23.8708 34.6064C21.8583 33.9165 19.959 33.225 18.1701 32.5263C18.1686 32.5998 18.1628 32.6719 18.1628 32.744H8.34728C8.36052 31.2155 8.50764 29.7194 8.76361 28.26C7.97067 27.8334 7.21597 27.4068 6.50394 26.9772C6.10526 28.925 5.87281 30.933 5.87281 32.9985C5.87281 39.4523 7.92506 45.4309 11.3984 50.3326C11.856 50.9784 12.3356 51.6095 12.8402 52.2156C18.3261 58.7944 26.5571 63.0048 35.7606 63.0577C35.7959 63.0577 35.8297 63.0621 35.8636 63.0621C35.8724 63.0621 35.8812 63.0607 35.8915 63.0607C35.9092 63.0607 35.9224 63.0621 35.9357 63.0621C45.2112 63.0621 53.5144 58.8386 59.0341 52.2186C59.5402 51.611 60.0198 50.9799 60.4744 50.3355C63.9477 45.4309 66 39.4537 66 32.9985C66.0059 26.5477 63.9551 20.5661 60.4817 15.6629ZM20.5092 18.0829C18.3893 17.2914 16.4812 16.3381 14.8365 15.2598C18.0613 11.429 22.3055 8.47797 27.1529 6.84504C24.3901 9.51069 22.0937 13.4077 20.5092 18.0829ZM34.7073 20.6779C30.4145 20.5735 26.3732 19.9262 22.8057 18.8552C25.2831 11.382 29.6465 6.18451 34.7073 5.49014V20.6779ZM8.43996 35.2125H18.2128C18.3731 38.9065 18.9322 42.4121 19.809 45.6162C17.4184 46.5136 15.2573 47.6081 13.3904 48.8541C10.6231 44.9307 8.84306 40.2673 8.43996 35.2125ZM14.8439 50.7357C16.4871 49.6603 18.3923 48.7085 20.5078 47.917C22.0907 52.5952 24.3901 56.4892 27.1544 59.1534C22.3055 57.5205 18.0716 54.5665 14.8439 50.7357ZM44.508 59.2299C47.315 56.5525 49.6482 52.6128 51.2459 47.8714C53.4129 48.6717 55.3607 49.6382 57.0378 50.7357C53.763 54.6238 49.4481 57.6117 44.508 59.2299ZM44.508 6.77001C49.4467 8.38824 53.7659 11.3717 57.0422 15.2613C55.6019 16.2043 53.9498 17.0428 52.1447 17.771C52.0609 17.7475 52.002 17.7342 52.002 17.7342L51.9653 17.8431C51.7255 17.9387 51.4916 18.0387 51.2444 18.1299C49.6453 13.39 47.315 9.44744 44.508 6.77001ZM53.5732 32.7469C53.5526 28.3527 52.9656 24.188 51.9432 20.4337C54.3838 19.526 56.5891 18.4168 58.4913 17.1472C61.6101 21.5723 63.4785 26.9419 63.5314 32.7469H53.5732Z" fill="#24B794"/>
</g>
<defs>
<clipPath id="clip0">
<rect width="66" height="66" fill="white"/>
</clipPath>
</defs>
</svg>
