<svg width="66" height="66" viewBox="0 0 66 66" fill="none" xmlns="http://www.w3.org/2000/svg">
<g clip-path="url(#clip0)">
<path d="M25.7497 56.7986C19.3838 54.8192 15.1067 49.0059 15.1067 42.3328C15.1067 39.0711 16.1278 35.9636 18.0598 33.3461C18.1038 33.2864 18.1436 33.2211 18.1769 33.1547C18.4961 32.5164 18.2368 31.7411 17.5984 31.4219C17.0206 31.1325 16.3294 31.3184 15.9668 31.8294C13.7132 34.8908 12.522 38.5224 12.522 42.3328C12.522 46.1916 13.7405 49.8606 16.0456 52.9426C18.2737 55.9217 21.4474 58.1678 24.9823 59.2668C25.1101 59.3066 25.2393 59.3255 25.3664 59.3255C25.9173 59.3255 26.428 58.9702 26.6001 58.4164C26.812 57.7348 26.4313 57.0106 25.7497 56.7986Z" fill="#24B794"/>
<path d="M58.8775 30.2003C58.8775 27.7403 58.1109 25.3965 56.66 23.4199L48.4791 11.2753C48.2389 10.9187 47.8372 10.7049 47.4072 10.7049C46.9772 10.7049 46.5756 10.9187 46.3353 11.2753L42.888 16.3927L32.2292 0.570329C31.9891 0.21376 31.5873 0 31.1574 0C30.7276 0 30.3258 0.21376 30.0857 0.570329L11.7886 27.7315C8.73572 31.8802 7.12244 36.801 7.12244 41.965C7.12244 55.2179 17.9045 66 31.1574 66C44.4103 66 55.1924 55.2179 55.1924 41.965C55.1924 40.9071 55.1217 39.8472 54.9843 38.8038C57.3698 36.7004 58.8775 33.6233 58.8775 30.2003ZM47.4072 14.3106L54.516 24.8634C54.5302 24.8854 54.5452 24.907 54.5608 24.9282C55.6939 26.4626 56.2928 28.2856 56.2928 30.2002C56.2928 35.0996 52.3068 39.0856 47.4072 39.0856C42.5078 39.0856 38.5218 35.0996 38.5218 30.2002C38.5218 28.2856 39.1207 26.4626 40.2537 24.9282C40.2687 24.9079 40.2831 24.8872 40.2969 24.8659L43.9573 19.432C43.9641 19.4221 43.971 19.4123 43.9775 19.4021L47.4072 14.3106ZM52.6075 41.965C52.6075 53.7928 42.9849 63.4152 31.1573 63.4152C19.3295 63.4152 9.70708 53.7928 9.70708 41.965C9.70708 37.3455 11.1533 32.9443 13.8895 29.2375C13.9051 29.2164 13.9202 29.1943 13.9349 29.1717L31.1574 3.60549L41.3299 18.706L38.1544 23.4201C36.7037 25.3965 35.9371 27.7404 35.9371 30.2003C35.9371 36.525 41.0826 41.6705 47.4072 41.6705C49.2566 41.6705 51.0048 41.2299 52.5534 40.4492C52.5886 40.9532 52.6075 41.4593 52.6075 41.965Z" fill="#24B794"/>
<path d="M42.8504 29.885C42.8504 29.2588 42.9779 28.6545 43.2294 28.0888C43.5195 27.4366 43.2257 26.6728 42.5736 26.3829C41.9213 26.0933 41.1576 26.3865 40.8676 27.0388C40.4681 27.9372 40.2656 28.8948 40.2656 29.885C40.2656 32.2305 41.4308 34.4108 43.3825 35.7166C43.6032 35.8643 43.8529 35.9349 44.1 35.9349C44.5169 35.9349 44.9261 35.7335 45.1753 35.3612C45.5721 34.7679 45.4131 33.9652 44.8198 33.5683C43.5867 32.7431 42.8504 31.3662 42.8504 29.885Z" fill="#24B794"/>
<path d="M30.5446 58.5889C30.2282 57.7574 29.0477 57.5202 28.4367 58.1701C27.7092 58.8751 28.1008 60.1696 29.0984 60.3504C30.0875 60.5671 30.9496 59.5173 30.5446 58.5889Z" fill="#24B794"/>
<path d="M46.7264 36.8949C47.5597 37.4721 48.7531 36.8339 48.736 35.821C48.7547 34.8079 47.559 34.1684 46.7264 34.7457C45.9716 35.2187 45.9686 36.4235 46.7264 36.8949Z" fill="#24B794"/>
</g>
<defs>
<clipPath id="clip0">
<rect width="66" height="66" fill="white"/>
</clipPath>
</defs>
</svg>
